<?xml version="1.0" standalone="no"?><!DOCTYPE svg PUBLIC "-//W3C//DTD SVG 1.1//EN" "http://www.w3.org/Graphics/SVG/1.1/DTD/svg11.dtd"><svg t="1615814807460" class="icon" viewBox="0 0 1024 1024" version="1.1" xmlns="http://www.w3.org/2000/svg" p-id="9473" xmlns:xlink="http://www.w3.org/1999/xlink" width="200" height="200"><defs><style type="text/css"></style></defs><path d="M871.56736 503.523328v14.6688h-4.143104c2.343936 5.781504 4.143104 11.84768 4.143104 18.588672v351.583232c0 30.733312-24.344576 55.69536-54.4256 55.69536-30.130176 0-54.488064-24.963072-54.488064-55.69536V536.7808c0-6.742016 1.79712-12.807168 4.156416-18.588672h-4.15744v-14.6688c-63.325184-33.257472-108.97408-121.84064-108.97408-226.79552 0-133.392384 73.187328-241.463296 163.463168-241.463296 90.211328 0 163.41504 108.069888 163.41504 241.46432 0 104.953856-45.64992 193.536-108.98944 226.794496zM363.1104 481.024h-36.329472v37.167104h-3.659776c2.048 5.892096 3.659776 11.968512 3.659776 18.588672v351.583232c0 30.733312-24.36096 55.69536-54.4256 55.69536-30.128128 0-54.489088-24.963072-54.489088-55.69536V536.7808c0-6.62016 1.62816-12.696576 3.659776-18.588672h-3.659776V481.024h-36.328448c-60.209152 0-108.976128-49.90976-108.976128-111.434752V146.701312c0-48.407552 30.42304-89.247744 72.644608-104.584192v306.849792c0 11.3664 8.12544 20.62336 18.173952 20.62336 10.046464 0 18.157568-9.25696 18.157568-20.62336V35.264512h72.660992v313.7024c0 11.3664 8.108032 20.62336 18.157568 20.62336 9.985024 0 18.17088-9.25696 18.17088-20.62336V35.264512h72.583168v313.7024c0 11.3664 8.188928 20.62336 18.171904 20.62336 10.034176 0 18.16064-9.25696 18.16064-20.62336V42.11712c42.21952 15.335424 72.65792 56.17664 72.65792 104.584192v222.88896c0.001024 61.524992-48.779264 111.433728-108.990464 111.433728z" p-id="9474" fill="#8f1c0d"></path></svg>