<?xml version="1.0" standalone="no"?><!DOCTYPE svg PUBLIC "-//W3C//DTD SVG 1.1//EN" "http://www.w3.org/Graphics/SVG/1.1/DTD/svg11.dtd"><svg t="1616827444314" class="icon" viewBox="0 0 1024 1024" version="1.1" xmlns="http://www.w3.org/2000/svg" p-id="4251" xmlns:xlink="http://www.w3.org/1999/xlink" width="200" height="200"><defs><style type="text/css"></style></defs><path d="M512 819.2a307.2 307.2 0 1 0 0-614.4 307.2 307.2 0 0 0 0 614.4z m0 68.266667C304.64 887.466667 136.533333 719.36 136.533333 512S304.64 136.533333 512 136.533333s375.466667 168.106667 375.466667 375.466667-168.106667 375.466667-375.466667 375.466667z m-74.1376-375.466667L512 586.1376 586.1376 512 512 437.8624 437.8624 512z m98.304-146.5344l122.368 122.402133a34.133333 34.133333 0 0 1 0 48.264534l-122.402133 122.402133a34.133333 34.133333 0 0 1-48.264534 0l-122.402133-122.402133a34.133333 34.133333 0 0 1 0-48.264534l122.402133-122.402133a34.133333 34.133333 0 0 1 48.264534 0z" p-id="4252" fill="#8f1c0d"></path></svg>