<?xml version="1.0" standalone="no"?><!DOCTYPE svg PUBLIC "-//W3C//DTD SVG 1.1//EN" "http://www.w3.org/Graphics/SVG/1.1/DTD/svg11.dtd"><svg t="1615814734503" class="icon" viewBox="0 0 1024 1024" version="1.1" xmlns="http://www.w3.org/2000/svg" p-id="8715" xmlns:xlink="http://www.w3.org/1999/xlink" width="200" height="200"><defs><style type="text/css"></style></defs><path d="M811.008 101.376q61.44 52.224 97.28 131.072t35.84 187.392q0 79.872-20.48 161.28t-56.32 156.16l-29.696-39.936q-10.24-10.24-20.48-1.024-9.216 12.288-1.024 23.552l36.864 46.08q-30.72 55.296-69.12 102.912t-83.456 81.92-95.232 53.76-103.424 19.456q-52.224 0-101.888-18.944t-93.696-52.224-82.432-79.36-69.12-100.352l41.984-46.08q4.096-4.096 4.096-10.24t-5.12-10.24q-4.096-4.096-10.24-4.096t-10.24 5.12l-34.816 36.864q-37.888-75.776-59.392-159.232t-21.504-165.376q0-108.544 35.84-187.392t98.304-131.072l32.768 35.84q5.12 4.096 10.752 4.608t10.752-4.608q5.12-4.096 5.632-9.728t-3.584-10.752l-32.768-34.816q58.368-40.96 130.56-61.44t154.112-20.48q82.944 0 155.136 20.48t130.56 63.488l-31.744 39.936q-8.192 12.288 0 23.552 12.288 9.216 20.48-1.024zM285.696 482.304q44.032 0 74.752-22.016t30.72-53.76q0-30.72-30.72-52.736t-74.752-22.016-74.752 22.016-30.72 52.736q0 31.744 30.72 53.76t74.752 22.016zM496.64 843.776q44.032 0 74.752-13.312t30.72-31.744q0-19.456-30.72-32.256t-74.752-12.8-74.752 12.8-30.72 32.256q0 18.432 30.72 31.744t74.752 13.312zM707.584 482.304q44.032 0 74.752-22.016t30.72-53.76q0-30.72-30.72-52.736t-74.752-22.016-74.752 22.016-30.72 52.736q0 31.744 30.72 53.76t74.752 22.016z" p-id="8716" fill="#8f1c0d"></path></svg>