<?xml version="1.0" standalone="no"?><!DOCTYPE svg PUBLIC "-//W3C//DTD SVG 1.1//EN" "http://www.w3.org/Graphics/SVG/1.1/DTD/svg11.dtd"><svg t="1616827515691" class="icon" viewBox="0 0 1024 1024" version="1.1" xmlns="http://www.w3.org/2000/svg" p-id="5092" xmlns:xlink="http://www.w3.org/1999/xlink" width="200" height="200"><defs><style type="text/css"></style></defs><path d="M793.6 460.8H588.8a25.6 25.6 0 0 1-25.6-25.6V230.4c0-127.04 103.36-230.4 230.4-230.4s230.4 103.36 230.4 230.4-103.36 230.4-230.4 230.4z m-179.2-51.2h179.2c98.816 0 179.2-80.384 179.2-179.2S892.416 51.2 793.6 51.2s-179.2 80.384-179.2 179.2v179.2zM435.2 460.8H25.6a25.6 25.6 0 0 1-25.6-25.6V25.6a25.6 25.6 0 0 1 25.6-25.6h409.6a25.6 25.6 0 0 1 25.6 25.6v409.6a25.6 25.6 0 0 1-25.6 25.6zM51.2 409.6h358.4V51.2H51.2v358.4zM435.2 1024H25.6a25.6 25.6 0 0 1-25.6-25.6V588.8a25.6 25.6 0 0 1 25.6-25.6h409.6a25.6 25.6 0 0 1 25.6 25.6v409.6a25.6 25.6 0 0 1-25.6 25.6zM51.2 972.8h358.4V614.4H51.2v358.4zM998.4 1024H588.8a25.6 25.6 0 0 1-25.6-25.6V588.8a25.6 25.6 0 0 1 25.6-25.6h409.6a25.6 25.6 0 0 1 25.6 25.6v409.6a25.6 25.6 0 0 1-25.6 25.6z m-384-51.2h358.4V614.4H614.4v358.4z" fill="#8f1c0d" p-id="5093"></path></svg>