<?xml version="1.0" standalone="no"?><!DOCTYPE svg PUBLIC "-//W3C//DTD SVG 1.1//EN" "http://www.w3.org/Graphics/SVG/1.1/DTD/svg11.dtd"><svg t="1615814932141" class="icon" viewBox="0 0 1024 1024" version="1.1" xmlns="http://www.w3.org/2000/svg" p-id="12272" xmlns:xlink="http://www.w3.org/1999/xlink" width="200" height="200"><defs><style type="text/css"></style></defs><path d="M792.3 605.1c-6.7-71.7-9-145.1-6.7-217.1-0.6-51.3-42.3-94.1-93.7-94.1H557.6c-51.1 9-92.6 41.7-93.1 92.8 2.2 71.6 0 145.9-6.7 217.2C446.4 758.4 431 849 431 849h389.1s-16.5-92.1-27.8-243.9z" p-id="12273" fill="#8f1c0d"></path><path d="M706 173.9c0-24.4-31.3-42.9-55.8-42.9h-51.5c-12 0-28.9 3.7-37.4 12.1-8.5 8.4-18.4 19.3-18.4 31.3V294h163V173.9zM821.1 868H429l-5.2 48h401.9zM336.4 351h-95.1 102.6-7.5zM246 332v-10h91.7l6.6 10H246z m91.7-29H246v-9h98.3l-6.6 9z m-88.6-38H344.4h-95.3z m88.8-29H246v-9h98.4l-6.5 9zM246 217v-19h91.7l6.6 19H246z m91.5-29H246v-19h98.5l-7 19zM246 399v-29h90l12-2.8c0.1-0.6 0.2-0.7 0.1-1.3l10-22c1-0.6 1.8-1.3 2.5-2.4 1.3-2.2 1.3-4.9 0-7.1-0.6-1.1-1.5-1.9-2.5-2.5l-10-21.8c0.1-0.6 0.1-1.2 0-1.7l10-21.8c1-0.6 1.9-1.5 2.5-2.5 1.3-2.2 1.3-5 0-7.2-0.6-1.1-1.5-1.9-2.5-2.5l-9.7-21.2c0.3-1.1 0.4-2.3 0.1-3.4l9.7-21.1c1.2-0.6 2.2-1.5 2.9-2.7 1.3-2.2 1.3-5 0-7.2-0.8-1.4-2-2.4-3.4-3l-9.2-20.5c0.3-1.2 0.3-2.4 0-3.6l12.1-29c1.1-2.1 1.1-1 0-3.1-1.3-1.9-3.4 0.5-5.7 0.5H244.7c-0.3-10-9.3-28.8-23.3-28.8-14.2 0-23.4 7.9-23.4 22.1v753.4c0 13.1 8.2 23.7 21.3 23.7 7 1.2 13.5-0.7 18.9-5.3 5.4-4.6 7.8-11.3 7.8-18.4V399" p-id="12274" fill="#8f1c0d"></path></svg>