<?xml version="1.0" standalone="no"?><!DOCTYPE svg PUBLIC "-//W3C//DTD SVG 1.1//EN" "http://www.w3.org/Graphics/SVG/1.1/DTD/svg11.dtd"><svg t="1615818085598" class="icon" viewBox="0 0 1024 1024" version="1.1" xmlns="http://www.w3.org/2000/svg" p-id="15166" xmlns:xlink="http://www.w3.org/1999/xlink" width="200" height="200"><defs><style type="text/css"></style></defs><path d="M221.4 817.3c-27.5 0-49.7 22.1-49.7 49.7v16.6c0 27.5 22.1 49.7 49.7 49.7h628.8c-12.9-16.5-20-36.9-20-57.9s7.1-41.4 20.1-57.9H221.4z" fill="#E5F0F1" p-id="15167"></path><path d="M221.4 89.1c-27.5 0-49.7 22.1-49.7 49.7V867c0-27.5 22.1-49.7 49.7-49.7h579.3c27.5 0 49.7-22.1 49.7-49.7V138.7c0-27.5-22.1-49.7-49.7-49.7H221.4z" fill="#FFFFFF" p-id="15168"></path><path d="M221.4 89.1c-27.5 0-49.7 22.1-49.7 49.7V867c0-27.5 22.1-49.7 49.7-49.7h66.2V89.1h-66.2z" fill="#FF9191" p-id="15169"></path><path d="M560.4 213.2c-13.7 0.2-24.7 11.5-24.5 25.2v10c-33 7.6-57.9 37.3-57.9 72.4v24.8c0 40.8 33.6 74.5 74.5 74.5H569c14.2 0 24.8 10.6 24.8 24.8v24.8c0 14.2-10.6 24.8-24.8 24.8h-16.6c-14.2 0-24.8-10.6-24.8-24.8 0.2-13.7-10.8-25-24.5-25.2-13.7-0.2-25 10.8-25.2 24.5v0.7c0 35.1 25 64.8 57.9 72.4v10c-0.2 13.7 10.8 25 24.5 25.2 13.7 0.2 25-10.8 25.2-24.5v-10.7c33-7.6 57.9-37.3 57.9-72.4v-24.8c0-40.8-33.6-74.5-74.5-74.5h-16.6c-14.2 0-24.8-10.6-24.8-24.8v-24.8c0-14.2 10.6-24.8 24.8-24.8H569c14.2 0 24.8 10.6 24.8 24.8-0.2 13.7 10.8 25 24.5 25.2 13.7 0.2 25-10.8 25.2-24.5v-0.7c0-35.1-25-64.8-57.9-72.4v-10c0.2-13.7-10.8-25-24.5-25.2h-0.7zM420.4 626.9c-13.7-0.2-25 10.8-25.2 24.5-0.2 13.7 10.8 25 24.5 25.2H569c13.7 0.2 25-10.8 25.2-24.5 0.2-13.7-10.8-25-24.5-25.2H420.4z m231.3 0c-13.7-0.2-25 10.8-25.2 24.5-0.2 13.7 10.8 25 24.5 25.2h50c13.7 0.2 25-10.8 25.2-24.5 0.2-13.7-10.8-25-24.5-25.2h-50z" fill="#D7DFEB" p-id="15170"></path><path d="M221.4 64.2c-40.8 0-74.5 33.6-74.5 74.5v612.4c-0.2 13.7 10.8 25 24.5 25.2 13.7 0.2 25-10.8 25.2-24.5V138.7c0-14.2 10.6-24.8 24.8-24.8h41.4v678.6h-41.4c-40.8 0-74.5 33.6-74.5 74.5v16.6c0 40.8 33.6 74.5 74.5 74.5H850c13.7 0.2 25-10.8 25.2-24.5 0.2-13.7-10.8-25-24.5-25.2H221.4c-14.2 0-24.8-10.6-24.8-24.8V867c0-14.2 10.6-24.8 24.8-24.8h66.2c13.7 0 24.8-11.1 24.8-24.8V89.1c0-13.7-11.1-24.8-24.8-24.8h-66.2z m149 0c-13.7-0.2-25 10.8-25.2 24.5s10.8 25 24.5 25.2h431c14.2 0 24.8 10.6 24.8 24.8v628.9c0 14.2-10.6 24.8-24.8 24.8H370.4c-13.7-0.2-25 10.8-25.2 24.5-0.2 13.7 10.8 25 24.5 25.2h431c40.8 0 74.5-33.6 74.5-74.5V138.7c0-40.8-33.6-74.5-74.5-74.5H370.4z" fill="#444852" p-id="15171"></path></svg>